<?xml version="1.0" standalone="no"?>
<!DOCTYPE svg PUBLIC "-//W3C//DTD SVG 20010904//EN"
 "http://www.w3.org/TR/2001/REC-SVG-20010904/DTD/svg10.dtd">
<svg version="1.0" xmlns="http://www.w3.org/2000/svg"
 width="512.000000pt" height="512.000000pt" viewBox="0 0 512.000000 512.000000"
 preserveAspectRatio="xMidYMid meet">
<metadata>
Created by potrace 1.10, written by Peter Selinger 2001-2011
</metadata>
<g transform="translate(0.000000,512.000000) scale(0.050000,-0.050000)"
fill="#000000" stroke="none">
<path d="M1720 9780 c-39 -39 -40 -67 -40 -1461 l0 -1420 -60 -65 c-103 -109
-1197 -2028 -1211 -2123 -35 -233 57 -339 529 -609 459 -263 574 -282 771
-132 l90 69 204 -254 c112 -140 212 -266 223 -280 13 -17 5 -58 -24 -124 -114
-265 27 -567 299 -641 67 -18 72 -26 95 -138 46 -219 249 -386 469 -386 89 -1
98 -5 128 -69 92 -195 371 -318 560 -246 51 20 61 15 124 -61 203 -244 562
-239 742 12 79 110 61 112 316 -37 329 -192 530 -185 710 24 63 75 115 194
115 266 0 19 27 36 74 44 199 38 352 187 395 386 13 58 22 65 83 65 283 0 506
350 406 636 -20 57 -16 67 50 133 137 137 191 358 127 513 l-30 72 146 76 147
76 87 -90 c200 -205 333 -191 815 84 474 272 566 377 531 611 -14 95 -1108
2014 -1211 2123 l-60 65 0 1417 c0 1398 -1 1417 -41 1460 l-41 44 -2739 0
c-2712 0 -2739 0 -2779 -40z m5320 -1528 l0 -1288 -55 -13 c-76 -19 -742 -403
-812 -468 -79 -74 -112 -146 -129 -278 l-14 -113 -120 -26 c-310 -65 -673 -54
-1131 35 -420 82 -669 28 -949 -203 -113 -93 -103 -92 -290 -21 -83 31 -247
90 -365 132 l-215 75 0 73 c0 122 -40 224 -117 304 -75 79 -730 466 -828 490
l-55 13 0 1288 0 1288 2540 0 2540 0 0 -1288z m-4768 -1753 c314 -180 408
-251 408 -313 0 -37 -1094 -1940 -1145 -1991 -62 -62 -131 -39 -468 157 -345
202 -403 253 -374 334 26 72 1089 1909 1131 1954 61 65 114 49 448 -141z
m4893 156 c37 -29 1131 -1923 1147 -1986 18 -70 -59 -134 -396 -328 -321 -185
-390 -207 -451 -146 -51 51 -1145 1954 -1145 1991 0 62 94 134 410 313 322
182 376 202 435 156z m-2347 -849 c450 -83 1077 -71 1329 26 24 9 873 -1418
873 -1468 0 -16 -367 -204 -398 -204 -10 0 -345 190 -745 423 -1244 723 -1196
709 -1689 479 l-166 -78 -119 -237 c-161 -321 -251 -407 -425 -407 l-64 0 14
405 13 405 253 240 c523 498 576 517 1124 416z m-1649 -94 c355 -127 348 -117
181 -265 -192 -169 -186 -151 -201 -689 -16 -627 27 -712 351 -693 301 17 479
170 657 562 61 134 63 135 217 208 294 137 231 159 1286 -451 1049 -607 1036
-597 952 -761 -77 -147 -135 -137 -534 96 -376 220 -485 229 -485 38 0 -81 13
-90 429 -330 476 -274 528 -341 380 -489 -93 -92 -132 -80 -581 182 -428 251
-489 272 -561 200 -107 -107 -52 -170 345 -401 387 -224 438 -309 273 -448
-88 -74 -94 -72 -499 159 -378 216 -405 224 -484 155 -107 -95 -51 -169 265
-354 345 -201 388 -267 268 -409 -76 -91 -143 -83 -369 46 l-189 109 -1 148
c-2 205 -164 453 -297 455 -62 1 -75 33 -52 120 59 221 -123 489 -366 539 -48
9 -68 27 -81 72 -61 201 -132 292 -283 362 -115 54 -258 61 -360 18 -67 -28
-70 -27 -111 30 -201 282 -582 240 -809 -90 -42 -61 -82 -111 -88 -110 -25 2
-472 585 -465 607 24 83 858 1491 883 1491 17 0 165 -48 329 -107z m-128
-1913 c141 -75 121 -166 -107 -488 -237 -333 -312 -374 -446 -241 -84 85 -67
148 115 407 249 355 303 395 438 322z m668 -202 c134 -105 127 -127 -210 -609
-365 -521 -402 -553 -548 -457 -143 94 -127 137 248 668 337 476 374 505 510
398z m422 -446 c186 -78 169 -146 -152 -604 -304 -434 -348 -462 -493 -317
-100 100 -89 128 203 543 293 414 313 432 442 378z m338 -639 c156 -65 155
-169 -3 -395 -112 -161 -133 -177 -229 -177 -190 0 -219 172 -67 391 143 205
183 229 299 181z"/>
<path d="M3091 8781 l-178 -179 -74 67 c-137 124 -262 100 -275 -52 -8 -90
252 -357 348 -357 81 0 568 485 568 566 0 198 -166 179 -389 -45z"/>
<path d="M4019 8703 c-31 -25 -46 -58 -46 -103 0 -145 -48 -140 1235 -140
1275 0 1232 -5 1232 131 0 157 64 149 -1228 149 -1085 0 -1150 -2 -1193 -37z"/>
<path d="M3105 7274 l-195 -191 -84 78 c-95 89 -164 101 -226 39 -82 -82 -56
-158 108 -317 207 -201 201 -202 516 113 272 271 295 314 221 401 -85 100
-130 83 -340 -123z"/>
<path d="M4019 7203 c-31 -25 -46 -58 -46 -103 0 -145 -48 -140 1235 -140
1275 0 1232 -5 1232 131 0 157 64 149 -1228 149 -1085 0 -1150 -2 -1193 -37z"/>
</g>
</svg>
