<?xml version="1.0" standalone="no"?>
<!DOCTYPE svg PUBLIC "-//W3C//DTD SVG 20010904//EN"
 "http://www.w3.org/TR/2001/REC-SVG-20010904/DTD/svg10.dtd">
<svg version="1.0" xmlns="http://www.w3.org/2000/svg"
 width="512.000000pt" height="512.000000pt" viewBox="0 0 512.000000 512.000000"
 preserveAspectRatio="xMidYMid meet">
<metadata>
Created by potrace 1.10, written by Peter Selinger 2001-2011
</metadata>
<g transform="translate(0.000000,512.000000) scale(0.050000,-0.050000)"
fill="#000000" stroke="none">
<path d="M710 10212 c-345 -110 -450 -302 -450 -824 0 -381 9 -408 135 -408
110 0 125 47 125 398 0 362 26 445 166 538 l81 54 2863 0 2863 0 83 -57 c168
-117 212 -308 86 -372 -43 -22 -135 -84 -206 -138 -183 -141 -233 -161 -488
-204 -421 -71 -513 -163 -579 -573 -45 -279 -42 -273 -174 -451 -269 -363
-281 -527 -63 -826 188 -257 191 -263 232 -508 74 -440 162 -537 546 -600
l200 -33 10 -1046 10 -1045 56 -49 c97 -83 179 -67 359 72 86 66 160 120 165
120 6 0 10 -555 10 -1234 0 -1399 7 -1341 -164 -1459 l-83 -57 -2863 0 -2863
0 -81 54 c-49 32 -98 88 -124 141 l-42 88 0 3384 0 3385 -49 49 c-63 63 -147
55 -196 -19 -8 -12 -15 -1561 -15 -3442 l0 -3420 57 -120 c68 -144 199 -270
334 -322 96 -37 195 -38 2989 -38 l2890 0 92 43 c127 58 251 175 315 296 l53
101 6 1285 c3 707 10 1285 17 1285 6 0 67 -44 135 -97 214 -168 286 -183 397
-85 l65 59 6 792 5 791 -49 50 c-63 63 -120 63 -183 1 l-49 -49 0 -684 c0
-671 -1 -682 -39 -655 -21 15 -113 84 -204 154 -216 166 -244 163 -498 -37
-100 -79 -186 -140 -191 -135 -5 5 -6 389 -3 853 l5 844 70 -53 c305 -228 498
-217 848 50 169 128 185 134 439 172 419 62 539 185 594 608 28 212 49 262
186 445 259 343 261 506 14 847 -153 210 -173 258 -210 505 -61 403 -170 505
-614 571 -221 34 -237 40 -428 183 -78 58 -178 124 -222 147 -77 39 -82 47
-92 149 -22 210 -168 407 -373 501 l-92 43 -2870 4 c-2276 3 -2887 -2 -2950
-22z m6446 -1039 c219 -163 274 -187 528 -224 349 -53 371 -74 415 -389 34
-247 71 -343 201 -519 229 -308 230 -327 39 -594 -176 -245 -192 -283 -239
-565 -57 -334 -62 -340 -405 -393 -249 -39 -342 -78 -527 -220 -270 -206 -307
-207 -581 -8 -217 157 -298 192 -545 229 -331 49 -342 62 -404 426 -43 255
-61 298 -208 495 -210 281 -212 322 -30 567 166 224 195 291 238 546 61 360
70 370 420 424 246 39 329 72 502 206 279 214 332 215 596 19z"/>
<path d="M6747 8654 c-31 -36 -105 -138 -163 -228 l-107 -162 -233 -67 c-401
-114 -423 -176 -174 -490 l150 -190 0 -270 c0 -415 27 -435 402 -299 l248 90
249 -90 c378 -137 422 -103 407 312 l-9 250 152 190 c263 330 246 381 -170
499 l-230 66 -138 209 c-182 276 -267 315 -384 180z m248 -454 l104 -158 167
-51 c91 -28 176 -51 189 -51 53 0 36 -41 -76 -181 l-119 -149 0 -215 c0 -118
-2 -215 -5 -215 -3 0 -77 27 -165 60 -199 74 -230 74 -433 0 -91 -33 -169 -60
-174 -60 -5 0 -4 85 2 188 13 216 6 237 -151 432 -66 82 -88 123 -70 129 14 6
90 27 169 48 187 51 209 65 278 167 175 260 153 255 284 56z"/>
<path d="M3417 9390 c-304 -112 -417 -320 -417 -772 0 -305 21 -405 117 -544
55 -79 63 -108 63 -219 l0 -128 -109 -34 c-517 -163 -753 -1018 -354 -1287
118 -79 239 -89 978 -82 l696 6 97 50 c209 107 275 268 234 563 -61 429 -213
645 -527 748 -58 19 -112 45 -120 57 -32 48 -16 226 26 278 151 193 211 708
113 987 -107 308 -492 490 -797 377z m337 -251 c69 -26 160 -111 198 -183 52
-100 -165 -156 -412 -107 -122 24 -195 -115 -110 -209 71 -78 328 -103 505
-49 56 17 67 -210 16 -309 -140 -271 -529 -267 -653 6 -53 118 -54 546 0 662
79 173 279 255 456 189z m13 -1533 c-121 -89 -327 -14 -327 120 l0 100 105
-10 c58 -5 137 -4 175 3 l70 11 6 -99 c5 -77 -2 -106 -29 -125z m-465 -200
c177 -117 430 -120 630 -6 232 130 445 -42 517 -419 43 -226 40 -255 -27 -323
l-59 -58 -733 0 -733 0 -59 58 c-68 69 -72 112 -26 335 52 253 116 347 288
425 113 52 106 52 202 -12z"/>
<path d="M984 5729 c-95 -67 -36 -229 83 -229 119 0 169 126 84 211 -57 57
-104 62 -167 18z"/>
<path d="M1473 5719 c-60 -47 -68 -109 -22 -175 l31 -44 2116 0 c2362 0 2182
-11 2182 135 0 133 132 125 -2172 125 -2077 0 -2083 0 -2135 -41z"/>
<path d="M973 5003 c-69 -76 -12 -223 88 -223 53 0 139 86 139 139 0 102 -158
160 -227 84z"/>
<path d="M1451 4996 c-46 -66 -38 -128 22 -175 52 -41 58 -41 2135 -41 2311 0
2172 -8 2172 128 0 142 163 132 -2185 132 l-2113 0 -31 -44z"/>
<path d="M984 4309 c-99 -70 -35 -229 91 -229 117 0 162 125 76 211 -57 57
-104 62 -167 18z"/>
<path d="M1473 4299 c-60 -47 -68 -109 -22 -175 l31 -44 2116 0 c2024 0 2117
2 2149 37 45 49 42 134 -7 183 -64 64 -4186 63 -4267 -1z"/>
<path d="M973 3583 c-76 -84 -15 -223 98 -223 54 0 129 80 129 136 0 104 -157
165 -227 87z"/>
<path d="M1460 3580 c-22 -22 -40 -62 -40 -90 0 -140 -160 -130 2176 -130
2324 0 2184 -8 2184 128 0 142 162 132 -2177 132 -2076 0 -2104 -1 -2143 -40z"/>
<path d="M1006 2900 c-88 -36 -85 -196 3 -236 138 -63 249 100 142 207 -53 52
-75 57 -145 29z"/>
<path d="M1473 2879 c-63 -50 -68 -116 -15 -182 l38 -47 2057 -6 c2186 -6
2196 -6 2219 87 19 77 -8 148 -64 170 -119 45 -4177 24 -4235 -22z"/>
<path d="M973 2163 c-76 -84 -15 -223 98 -223 54 0 129 80 129 136 0 104 -157
165 -227 87z"/>
<path d="M1460 2160 c-22 -22 -40 -62 -40 -90 0 -140 -160 -130 2176 -130
2324 0 2184 -8 2184 128 0 142 162 132 -2177 132 -2076 0 -2104 -1 -2143 -40z"/>
</g>
</svg>
