<?xml version="1.0" standalone="no"?>
<!DOCTYPE svg PUBLIC "-//W3C//DTD SVG 20010904//EN"
 "http://www.w3.org/TR/2001/REC-SVG-20010904/DTD/svg10.dtd">
<svg version="1.0" xmlns="http://www.w3.org/2000/svg"
 width="512.000000pt" height="512.000000pt" viewBox="0 0 512.000000 512.000000"
 preserveAspectRatio="xMidYMid meet">
<metadata>
Created by potrace 1.10, written by Peter Selinger 2001-2011
</metadata>
<g transform="translate(0.000000,512.000000) scale(0.050000,-0.050000)"
fill="#000000" stroke="none">
<path d="M4260 8920 c-1093 -174 -1533 -1469 -760 -2240 646 -644 1720 -487
2135 312 495 954 -320 2096 -1375 1928z m438 -311 c486 -114 831 -580 795
-1072 -66 -892 -1158 -1293 -1788 -657 -734 741 -28 1970 993 1729z"/>
<path d="M6967 7992 c-275 -67 -562 -299 -683 -553 -488 -1027 813 -1978 1642
-1200 776 729 78 2004 -959 1753z m370 -273 c903 -146 797 -1468 -117 -1468
-901 0 -1022 1319 -135 1467 58 9 110 18 115 20 6 1 67 -8 137 -19z"/>
<path d="M1615 7940 c-805 -145 -1150 -1093 -618 -1701 624 -714 1823 -266
1823 681 0 624 -597 1130 -1205 1020z m492 -357 c449 -221 566 -801 232 -1158
-470 -502 -1304 -186 -1304 495 0 547 579 906 1072 663z"/>
<path d="M4078 6069 c-449 -81 -854 -277 -1209 -584 l-141 -122 -99 57 c-966
558 -2274 -7 -2572 -1110 -52 -195 -78 -880 -38 -1015 79 -263 129 -275 1176
-275 l865 0 0 -55 c1 -130 117 -290 270 -372 l80 -43 2090 0 2090 0 80 43
c174 93 269 242 270 422 l0 105 835 0 c1033 1 1091 13 1190 236 58 131 43 833
-23 1071 -301 1088 -1490 1616 -2519 1120 l-228 -110 -72 61 c-567 480 -1346
698 -2045 571z m858 -298 c724 -155 1312 -650 1572 -1323 186 -482 220 -1498
53 -1587 -53 -29 -4069 -29 -4122 0 -167 89 -132 1106 53 1587 290 751 969
1262 1808 1360 122 14 496 -8 636 -37z m2644 -365 c514 -123 946 -545 1079
-1055 49 -188 62 -862 17 -907 -18 -18 -241 -24 -880 -24 l-856 0 0 235 c0
525 -154 1027 -430 1403 -45 62 -88 122 -96 134 -17 29 172 130 349 187 259
84 543 93 817 27z m-5370 -126 c196 -62 335 -135 316 -166 -9 -13 -49 -73 -88
-134 -260 -395 -378 -824 -378 -1375 l0 -285 -875 5 -875 5 -5 369 c-8 525 60
765 303 1074 373 474 1040 685 1602 507z"/>
</g>
</svg>
