<?xml version="1.0" standalone="no"?>
<!DOCTYPE svg PUBLIC "-//W3C//DTD SVG 20010904//EN"
 "http://www.w3.org/TR/2001/REC-SVG-20010904/DTD/svg10.dtd">
<svg version="1.0" xmlns="http://www.w3.org/2000/svg"
 width="512.000000pt" height="512.000000pt" viewBox="0 0 512.000000 512.000000"
 preserveAspectRatio="xMidYMid meet">
<metadata>
Created by potrace 1.10, written by Peter Selinger 2001-2011
</metadata>
<g transform="translate(0.000000,512.000000) scale(0.050000,-0.050000)"
fill="#000000" stroke="none">
<path d="M4360 10197 c-102 -62 -111 -78 -221 -422 l-101 -315 -304 0 c-432
-1 -538 -39 -596 -215 -54 -165 5 -251 341 -494 132 -95 244 -180 249 -188 6
-9 -35 -155 -91 -324 -125 -381 -125 -447 3 -566 144 -134 243 -112 579 133
146 107 273 194 281 194 8 0 135 -87 281 -194 336 -245 435 -267 579 -133 128
119 128 185 3 566 -56 169 -97 315 -91 324 5 8 117 93 249 188 336 243 395
329 341 494 -58 176 -164 214 -596 215 l-304 0 -101 315 c-56 173 -113 330
-126 347 -46 59 -164 118 -235 118 -38 0 -101 -19 -140 -43z m257 -575 c99
-307 142 -382 249 -444 2 -2 166 -9 364 -15 l359 -13 -219 -158 c-447 -322
-448 -324 -290 -801 54 -164 95 -303 90 -307 -4 -5 -119 72 -254 171 -423 309
-409 309 -832 -1 -135 -98 -249 -175 -254 -171 -5 5 36 144 90 308 158 477
157 479 -290 801 l-219 158 359 13 c198 6 362 13 364 15 107 62 150 137 249
444 56 175 109 318 117 318 8 0 61 -143 117 -318z"/>
<path d="M2090 8963 c-75 -46 -93 -79 -187 -363 l-76 -230 -290 -10 c-323 -11
-367 -26 -424 -147 -86 -180 1 -294 450 -594 10 -6 -20 -129 -66 -273 -94
-297 -93 -367 4 -464 128 -128 228 -109 511 99 133 97 224 151 237 141 347
-278 502 -350 624 -289 175 87 191 189 81 520 -41 122 -74 231 -74 241 0 11
83 79 185 151 339 240 393 387 204 553 l-70 62 -285 0 -285 0 -86 259 c-119
363 -255 465 -453 344z m218 -534 c104 -322 143 -349 506 -349 l231 0 -208
-155 c-280 -209 -287 -230 -187 -542 89 -279 93 -276 -128 -114 -274 202 -319
201 -601 -7 -105 -77 -192 -137 -195 -134 -3 3 26 98 64 212 116 343 100 393
-182 593 l-194 137 259 10 c360 14 365 17 486 386 36 108 68 194 71 190 4 -3
39 -106 78 -227z"/>
<path d="M6612 8939 c-59 -52 -84 -103 -155 -320 l-86 -259 -277 0 c-307 0
-359 -15 -424 -125 -93 -158 -41 -263 226 -459 107 -78 202 -149 211 -157 10
-9 -20 -134 -66 -278 -92 -288 -93 -340 -9 -440 137 -163 303 -112 719 221 13
10 104 -44 237 -141 283 -208 383 -227 511 -99 98 98 98 168 3 464 -46 143
-76 266 -66 272 448 298 537 415 451 595 -57 121 -101 136 -424 147 l-290 10
-76 230 c-94 284 -112 317 -187 363 -95 58 -215 49 -298 -24z m229 -474 c121
-367 126 -371 484 -385 l257 -10 -191 -137 c-281 -201 -296 -250 -181 -593 38
-114 67 -209 64 -212 -3 -3 -90 57 -194 133 -281 207 -331 207 -606 6 -217
-159 -213 -162 -124 116 100 312 93 333 -187 542 l-208 155 231 0 c364 0 403
27 507 354 40 124 75 226 78 226 3 0 35 -88 70 -195z"/>
<path d="M4355 7251 c-93 -33 -199 -112 -254 -190 -69 -96 -148 -110 -350 -59
-348 87 -602 -62 -672 -396 -31 -152 -77 -198 -245 -247 -376 -111 -537 -373
-423 -689 54 -151 41 -198 -92 -342 -268 -287 -274 -534 -18 -800 135 -142
143 -178 87 -395 -84 -325 90 -610 405 -662 165 -27 166 -22 -78 -441 -654
-1128 -632 -1079 -524 -1207 91 -109 151 -114 418 -33 130 39 245 73 257 76
13 2 45 -102 77 -244 67 -307 115 -372 275 -372 152 0 115 -50 692 950 130
226 238 412 240 416 2 3 49 -18 104 -47 160 -83 471 -55 535 49 29 47 57 4
413 -612 433 -750 437 -756 576 -756 163 0 207 60 278 370 32 138 67 248 78
246 12 -3 125 -36 252 -74 263 -80 334 -75 423 30 99 118 90 142 -339 887
-443 769 -413 702 -315 720 351 65 546 375 435 691 -56 159 -43 209 89 347
269 280 272 546 11 807 -126 126 -136 179 -78 381 88 300 -95 613 -383 656
-145 22 -213 80 -255 219 -115 389 -344 549 -656 463 -209 -58 -244 -50 -401
95 -195 181 -370 232 -562 163z m251 -279 c35 -15 105 -70 154 -121 168 -175
307 -213 547 -150 247 64 319 20 394 -245 62 -216 168 -334 349 -386 294 -84
341 -144 284 -366 -72 -282 -34 -446 146 -618 165 -158 165 -239 1 -415 -199
-213 -241 -368 -169 -610 59 -199 0 -301 -204 -354 -287 -75 -393 -184 -468
-483 -41 -159 -135 -208 -319 -164 -308 73 -460 37 -639 -151 -152 -161 -229
-158 -421 19 -200 183 -366 231 -561 162 -219 -77 -335 -15 -390 210 -62 251
-204 397 -432 442 -204 40 -266 141 -211 340 74 263 29 465 -133 610 -190 170
-185 257 27 479 163 172 196 331 119 590 -51 176 19 274 235 328 260 65 389
197 433 441 37 199 138 250 377 188 260 -66 400 -31 571 143 132 136 198 159
310 111z m1615 -4392 c156 -269 288 -501 293 -513 5 -14 -82 6 -203 45 -339
110 -416 68 -493 -268 -24 -107 -49 -201 -56 -209 -7 -8 -168 253 -357 580
-366 636 -365 630 -183 576 280 -83 566 26 659 252 32 76 11 105 340 -463z
m-3048 361 c134 -152 358 -203 572 -129 103 34 188 31 180 -8 -12 -55 -675
-1182 -687 -1169 -8 8 -33 102 -57 209 -76 336 -153 378 -490 269 -116 -38
-211 -65 -211 -60 0 56 593 1024 610 995 11 -19 49 -67 83 -107z"/>
<path d="M4235 6401 c-1128 -207 -1637 -1536 -935 -2446 683 -884 2086 -733
2572 278 533 1108 -433 2388 -1637 2168z m648 -322 c978 -328 1164 -1643 313
-2213 -833 -556 -1934 32 -1936 1035 -1 832 838 1441 1623 1178z"/>
<path d="M4740 5070 c-237 -236 -440 -430 -451 -430 -11 0 -118 98 -237 218
-262 263 -317 284 -401 156 -48 -73 -25 -109 269 -407 307 -311 340 -336 404
-317 54 16 985 935 1027 1014 48 90 -16 196 -118 196 -53 0 -120 -59 -493
-430z"/>
</g>
</svg>
