<?xml version="1.0" standalone="no"?>
<!DOCTYPE svg PUBLIC "-//W3C//DTD SVG 20010904//EN"
 "http://www.w3.org/TR/2001/REC-SVG-20010904/DTD/svg10.dtd">
<svg version="1.0" xmlns="http://www.w3.org/2000/svg"
 width="512.000000pt" height="512.000000pt" viewBox="0 0 512.000000 512.000000"
 preserveAspectRatio="xMidYMid meet">
<metadata>
Created by potrace 1.10, written by Peter Selinger 2001-2011
</metadata>
<g transform="translate(0.000000,512.000000) scale(0.050000,-0.050000)"
fill="#000000" stroke="none">
<path d="M3480 10009 c-27 -5 -131 -19 -230 -31 -3401 -424 -4437 -4978 -1560
-6857 288 -188 1019 -500 1175 -501 29 0 35 -18 35 -106 0 -73 16 -137 51
-208 l50 -101 -41 -71 c-137 -233 -15 -576 232 -649 152 -46 2496 -34 2599 13
76 34 92 35 250 6 261 -46 1277 -45 1570 1 801 127 1220 444 1341 1016 127
596 -210 1302 -1101 2307 l-210 238 69 76 c38 43 74 102 81 132 7 31 16 68 21
82 16 53 -38 206 -95 267 -70 75 -79 35 67 289 235 409 141 714 -245 796 -48
10 -54 24 -77 176 -202 1320 -1211 2497 -2522 2943 -419 142 -1157 234 -1460
182z m630 -289 c1487 -166 2711 -1254 3038 -2700 69 -305 71 -487 4 -396 -12
16 -58 52 -102 80 -79 50 -81 54 -127 268 -630 2940 -4691 3459 -6043 773
-901 -1791 -61 -3892 1820 -4554 l190 -67 14 -81 c7 -45 24 -100 36 -123 64
-120 -776 221 -1135 461 -2457 1642 -1783 5533 1080 6239 445 110 844 142
1225 100z m310 -566 c954 -226 1720 -882 2087 -1786 109 -269 195 -611 157
-623 -15 -5 -65 -39 -112 -75 l-86 -66 -64 40 c-327 208 -768 -118 -656 -484
16 -49 78 -175 140 -279 l111 -189 -57 -65 c-136 -155 -121 -420 28 -518 l52
-34 -100 -112 c-170 -190 -468 -547 -558 -667 l-85 -114 -1024 -6 c-1004 -6
-1024 -7 -1103 -49 -232 -125 -311 -365 -199 -605 64 -139 63 -139 -153 -63
-2750 960 -2616 4947 189 5663 445 113 1034 127 1433 32z m2516 -2720 c40 -42
43 -70 48 -365 l6 -319 120 206 c283 486 351 546 482 422 73 -69 60 -128 -89
-388 l-138 -240 -537 -5 -538 -5 -135 238 c-147 259 -164 333 -91 401 92 86
214 43 287 -103 113 -222 280 -214 311 16 24 180 168 255 274 142z m552 -986
c45 -17 40 -102 -7 -127 -50 -27 -1239 -28 -1310 -1 -59 22 -68 88 -16 118 38
22 1278 31 1333 10z m19 -653 c1549 -1659 1586 -2734 102 -3008 -218 -40
-1169 -50 -1425 -14 l-127 17 -5 122 c-3 89 -19 146 -56 210 -51 86 -51 90
-16 133 93 115 94 394 1 509 -36 45 -36 47 16 136 43 72 53 115 53 220 0 105
-10 148 -53 220 -52 89 -53 91 -15 137 180 223 -9 683 -280 683 -99 0 12 158
444 632 l204 225 473 1 474 2 210 -225z m-1776 -956 c58 -64 49 -174 -19 -232
l-55 -48 -1200 6 -1201 5 -38 47 c-51 63 -49 159 5 217 l44 46 1213 0 c1198 0
1214 -1 1251 -41z m-32 -579 c55 -29 83 -127 58 -200 -35 -101 -23 -100 -1294
-100 l-1200 0 -42 53 c-56 71 -53 157 8 218 l49 49 1192 0 c740 0 1207 -7
1229 -20z m24 -635 c59 -58 58 -173 -2 -233 -41 -41 -2261 -80 -2417 -42 -148
36 -170 232 -34 307 28 16 388 21 1224 18 l1185 -5 44 -45z m-34 -577 c93 -36
108 -192 27 -267 -43 -40 -66 -41 -1241 -41 l-1197 0 -49 49 c-63 63 -65 161
-6 225 l44 46 1195 0 c657 0 1209 -6 1227 -12z"/>
<path d="M3660 9040 c-113 -113 -40 -560 91 -560 111 0 149 76 149 296 0 276
-109 395 -240 264z"/>
<path d="M1514 7600 c-64 -51 -74 -156 -19 -204 19 -16 428 -239 908 -494
l872 -464 -10 -126 c-12 -150 16 -253 98 -357 l59 -75 -391 -432 c-420 -463
-448 -510 -353 -596 97 -88 140 -57 590 438 l418 460 112 12 c635 71 604 998
-33 998 -86 0 -160 -14 -227 -43 -76 -33 -110 -38 -144 -22 -24 11 -426 224
-894 473 -950 507 -911 490 -986 432z m2398 -1188 c138 -138 61 -344 -137
-367 -169 -19 -292 166 -213 321 69 134 239 157 350 46z"/>
<path d="M1020 6383 c-110 -32 -122 -204 -18 -259 78 -41 423 -24 476 24 56
51 56 153 0 204 -45 41 -353 62 -458 31z"/>
<path d="M6966 4300 c-49 -20 -86 -78 -86 -138 0 -28 -26 -52 -85 -78 -469
-210 -335 -868 192 -945 193 -28 279 -158 205 -312 -93 -197 -368 -132 -405
95 -21 136 -145 182 -238 89 -117 -117 40 -454 251 -539 68 -27 80 -41 80 -90
0 -65 78 -142 144 -142 59 0 136 89 136 159 0 38 10 61 27 61 52 0 191 119
242 207 186 318 -51 753 -411 753 -241 0 -310 319 -88 411 133 56 290 -48 290
-192 0 -71 69 -139 141 -139 229 0 159 403 -96 550 -83 48 -104 71 -104 113
-2 100 -105 173 -195 137z"/>
</g>
</svg>
